<?xml version="1.0" encoding="utf-8"?>
<!-- Generator: Adobe Illustrator 16.0.0, SVG Export Plug-In . SVG Version: 6.00 Build 0)  -->
<!DOCTYPE svg PUBLIC "-//W3C//DTD SVG 1.1//EN" "http://www.w3.org/Graphics/SVG/1.1/DTD/svg11.dtd">
<svg version="1.1" id="Layer_1" xmlns="http://www.w3.org/2000/svg" xmlns:xlink="http://www.w3.org/1999/xlink" x="0px" y="0px"
	 width="707px" height="200px" viewBox="0 0 707 200" enable-background="new 0 0 707 200" xml:space="preserve">
<linearGradient id="SVGID_1_" gradientUnits="userSpaceOnUse" x1="93.3735" y1="107.6074" x2="291.3911" y2="107.6074">
	<stop  offset="0" style="stop-color:#FAC739"/>
	<stop  offset="1" style="stop-color:#ED1F6C"/>
</linearGradient>
<path fill="url(#SVGID_1_)" d="M107.726,49.979c0.3-4.074,3.861-7.132,7.953-6.831c4.092,0.302,7.164,3.851,6.865,7.926
	c-0.302,4.076-3.863,7.134-7.955,6.832S107.424,54.055,107.726,49.979z M193.167,167.089c-3.95-0.293-7.389,2.66-7.678,6.594
	c-0.291,3.935,2.675,7.36,6.625,7.651c3.952,0.292,7.39-2.661,7.68-6.596C200.085,170.807,197.118,167.381,193.167,167.089z
	 M288.181,89.18c-0.043-0.04-0.082-0.082-0.127-0.12l-55.413-47.623c-2.144-1.844-5.153-1.873-6.723-0.064
	c-0.999,1.153-1.167,2.773-0.604,4.274l-0.012,0.046c-0.648,2.528-3.75,3.478-5.73,1.776l-9.178-7.881
	c-3.037-2.61-7.627-2.271-10.249,0.756c-1.921,2.218-2.245,5.262-1.091,7.759l0,0c0,3.105-3.644,4.778-6,2.756l-17.027-14.627
	c-3.969-3.409-9.841-3.105-13.117,0.677c-0.691,0.798-1.211,1.689-1.565,2.629l-0.567-0.503c0,0,0.206,0.244,0.506,0.672
	c-0.814,2.312-0.634,4.898,0.486,7.151c0.824,1.659,0.418,3.663-1.05,4.793l-11.216-9.64c-4.691-4.03-11.391-3.958-14.961,0.159
	c-3.568,4.119-2.658,10.729,2.033,14.759l0.124,0.106c-0.528,0.65-1.196,1.325-2.032,2.015c-1.361,1.121-2.982,1.859-4.682,2.338
	c-1.391,0.392-2.65,1.152-3.629,2.278c-1.777,2.052-2.211,4.851-1.425,7.479c0.59,1.977-0.19,4.126-1.977,5.157
	c-0.015,0.01-0.03,0.018-0.045,0.026l-15.646-13.443c-3.686-3.166-9.064-2.971-12.016,0.435s-2.355,8.732,1.332,11.898
	l19.869,17.072c1.896,1.627,1.494,4.668-0.759,5.751l-0.03,0.013c-0.826,0.396-1.758,0.786-2.813,1.161
	c-3.418,1.219-4.643,5.54-2.189,8.215c0.15,0.165,0.314,0.323,0.488,0.475l8.556,7.347c2.536,2.177,2.419,6.146-0.251,8.154
	c-0.033,0.023-0.063,0.046-0.094,0.069c-0.16,0.118-0.338,0.214-0.518,0.3c-0.541,0.26-1.041,0.631-1.459,1.112
	c-1.629,1.882-1.42,4.722,0.469,6.343l48.773,41.89c1.889,1.621,4.74,1.413,6.369-0.47c0.857-0.99,1.201-2.243,1.063-3.446
	l0.006,0.003c0,0-0.286-2.851,2.184-5.944c0.746-0.934,1.703-1.669,2.723-2.29c0.488-0.298,0.938-0.674,1.331-1.128
	c0.589-0.68,0.981-1.463,1.191-2.277c0.002-0.008,0.004-0.015,0.006-0.023c0.007-0.091,0.036-0.443,0.155-0.957
	c0.744-3.138,4.547-4.374,6.992-2.272l3.133,2.69c3.685,3.167,9.064,2.973,12.014-0.435c0.48-0.553,0.865-1.158,1.159-1.798l0,0
	c0.46-0.997,0.694-2.074,0.713-3.169c0.005-0.016,0.013-0.033,0.019-0.049c1.239-3.296,5.406-4.326,8.075-2.03l14.474,12.436
	c3.877,3.334,9.414,3.275,12.365-0.13c0.821-0.947,1.355-2.058,1.615-3.234c0.011-0.014,0.023-0.028,0.033-0.043
	c2.689-3.563,7.848-4.081,11.232-1.173l4.308,3.7c4.69,4.033,11.39,3.963,14.96-0.156c1.113-1.289,1.792-2.817,2.054-4.434
	l0.125,0.097c0,0-0.031-0.137-0.086-0.385c0.265-2.016-0.104-4.154-1.072-6.121c-0.012-0.097-0.024-0.194-0.036-0.293
	c-0.551-4.374,1.366-8.622,4.836-11.344c0.432-0.338,0.836-0.722,1.209-1.151c2.132-2.461,2.637-5.79,1.637-8.754
	c-0.051-0.259-0.101-0.55-0.144-0.867c-0.513-3.707,1.759-7.146,5.291-8.387c1.15-0.404,2.214-1.103,3.069-2.091
	c2.621-3.026,2.283-7.597-0.753-10.206l-6.313-5.423c0.053-0.259,0.124-0.541,0.217-0.849c0.599-1.966,2.266-3.36,4.266-3.829
	c0.795-0.184,1.512-0.59,2.057-1.218c1.35-1.554,1.188-3.961-0.248-5.776"/>
<g>
	<path d="M362.457,104.376h-41.669v56.108l-6.291-0.043V98.17h47.96V104.376z M362.288,143.217h-36.223v-6.122h36.223V143.217z"/>
	<path d="M423.589,129.158c-0.112,8.781-2.928,16.268-8.444,22.46c-5.545,6.248-12.215,9.372-20.011,9.372
		c-7.825,0-14.509-3.138-20.054-9.414c-5.517-6.191-8.316-13.693-8.401-22.503V98.085h5.952v30.988
		c0.085,7.036,2.322,13.046,6.713,18.027c4.363,4.926,9.611,7.388,15.748,7.388c6.135,0,11.398-2.448,15.789-7.346
		c4.391-4.953,6.643-10.934,6.755-17.942V98.085h5.953V129.158z"/>
	<path d="M488.9,98.17v62.736l-50.282-49.185v48.72h-6.122V96.988l50.282,49.987V98.17H488.9z"/>
	<path d="M503.93,160.652h-6.121V98.381h6.121V160.652z M517.777,137.644l40.571,40.571h-8.612l-40.572-40.571l39.686-39.558h8.654
		L517.777,137.644z"/>
	<path d="M584.988,140.811L562.57,98.17h6.756l18.66,35.928l18.702-35.928h6.713l-22.291,42.641l-0.042,19.631h-6.122
		L584.988,140.811z"/>
</g>
<rect x="354.109" y="171.566" width="176.381" height="2.556"/>
<circle cx="575.65" cy="172.844" r="3.41"/>
<circle cx="590.563" cy="172.844" r="3.408"/>
<path d="M608.881,172.844c0,1.882-1.527,3.408-3.406,3.408c-1.885,0-3.41-1.526-3.41-3.408c0-1.883,1.525-3.406,3.41-3.406
	C607.354,169.438,608.881,170.961,608.881,172.844z"/>
<g>
	<path d="M348.75,49.393c0.408,0,0.728,0.128,0.958,0.383c0.23,0.257,0.345,0.588,0.345,0.996v31.262
		c0,0.409-0.115,0.741-0.345,0.996c-0.229,0.256-0.549,0.383-0.958,0.383h-0.077c-0.153,0-0.294-0.025-0.421-0.076
		c-0.128-0.051-0.268-0.127-0.421-0.23L332.276,71l-15.554,12.105c-0.256,0.205-0.537,0.307-0.843,0.307
		c-0.511,0-0.87-0.179-1.073-0.536c-0.256-0.307-0.357-0.639-0.307-0.996s0.23-0.663,0.536-0.92l16.397-12.719
		c0.204-0.153,0.408-0.229,0.613-0.229h0.229h0.23c0.255,0,0.46,0.076,0.613,0.229l14.251,11.033V50.771
		c0-0.408,0.127-0.739,0.383-0.996C348.008,49.521,348.34,49.393,348.75,49.393z M315.879,75.061c-0.41,0-0.741-0.127-0.996-0.383
		c-0.256-0.256-0.383-0.562-0.383-0.92V50.771c0-0.408,0.127-0.739,0.383-0.996c0.255-0.255,0.586-0.383,0.996-0.383
		c0.356,0,0.663,0.128,0.919,0.383c0.255,0.257,0.383,0.588,0.383,0.996v22.986c0,0.358-0.128,0.664-0.383,0.92
		C316.542,74.934,316.236,75.061,315.879,75.061z"/>
	<path d="M373.881,49.393c2.094,0,4.086,0.357,5.977,1.072c1.889,0.716,3.574,1.699,5.057,2.95c1.48,1.252,2.732,2.759,3.754,4.521
		c1.021,1.763,1.686,3.666,1.992,5.708c0.102,0.41,0.039,0.755-0.191,1.035c-0.23,0.281-0.549,0.473-0.957,0.574h-0.154h-0.152
		h-22.373c-0.41,0-0.742-0.127-0.996-0.383c-0.257-0.255-0.384-0.587-0.384-0.996c0-0.408,0.127-0.74,0.384-0.996
		c0.254-0.255,0.586-0.384,0.996-0.384h20.764c-0.41-1.532-1.048-2.923-1.916-4.176c-0.869-1.251-1.903-2.337-3.104-3.256
		c-1.2-0.92-2.541-1.634-4.021-2.146c-1.482-0.51-3.04-0.767-4.674-0.767c-2.452,0-4.738,0.575-6.857,1.725
		c-2.121,1.149-3.845,2.771-5.172,4.865c-1.073,1.584-1.763,3.371-2.069,5.363c-0.052,0.409-0.09,0.793-0.114,1.149
		c-0.027,0.358-0.039,0.741-0.039,1.149c0,1.992,0.37,3.844,1.111,5.555c0.74,1.712,1.762,3.219,3.064,4.521
		c1.303,1.303,2.809,2.325,4.521,3.065c1.711,0.741,3.563,1.11,5.556,1.11c2.299,0,4.43-0.484,6.397-1.455
		c1.966-0.97,3.613-2.35,4.942-4.138c0.613-0.767,1.174-1.686,1.686-2.759c0.356-0.816,0.944-1.046,1.762-0.689
		c0.357,0.153,0.6,0.409,0.729,0.767c0.127,0.357,0.115,0.716-0.039,1.072c-0.563,1.227-1.2,2.299-1.915,3.219
		c-1.636,2.145-3.628,3.806-5.977,4.979c-2.351,1.176-4.878,1.763-7.585,1.763c-2.351,0-4.56-0.446-6.628-1.341
		c-2.069-0.894-3.87-2.107-5.401-3.64c-1.533-1.532-2.747-3.333-3.641-5.401c-0.894-2.069-1.34-4.278-1.34-6.628
		c0-0.92,0.076-1.839,0.229-2.759c0.204-1.174,0.498-2.285,0.881-3.333c0.384-1.046,0.906-2.056,1.571-3.026
		c1.582-2.502,3.639-4.443,6.168-5.823C368.249,50.082,370.969,49.393,373.881,49.393z"/>
	<path d="M430.273,49.469c0.408,0,0.74,0.129,0.996,0.384c0.255,0.256,0.383,0.588,0.383,0.996v31.185
		c0,0.409-0.128,0.741-0.383,0.996c-0.256,0.256-0.588,0.383-0.996,0.383c-0.41,0-0.741-0.127-0.996-0.383
		c-0.256-0.255-0.383-0.587-0.383-0.996V66.402c0-1.992-0.371-3.843-1.111-5.555c-0.741-1.711-1.762-3.219-3.064-4.521
		c-1.303-1.302-2.811-2.323-4.521-3.064c-1.711-0.74-3.563-1.111-5.555-1.111s-3.844,0.371-5.555,1.111
		c-1.713,0.741-3.219,1.763-4.521,3.064c-1.302,1.303-2.324,2.811-3.064,4.521c-0.74,1.712-1.111,3.563-1.111,5.555
		s0.371,3.844,1.111,5.555c0.74,1.712,1.763,3.219,3.064,4.521c1.303,1.303,2.809,2.325,4.521,3.065
		c1.711,0.741,3.563,1.11,5.555,1.11c2.655,0,5.107-0.689,7.355-2.068c0.307-0.203,0.639-0.255,0.996-0.153
		c0.357,0.104,0.639,0.333,0.843,0.689c0.255,0.307,0.332,0.64,0.229,0.996c-0.103,0.358-0.332,0.64-0.689,0.843
		c-2.656,1.636-5.568,2.452-8.734,2.452c-2.35,0-4.559-0.446-6.627-1.341c-2.069-0.894-3.87-2.107-5.402-3.64
		c-1.533-1.532-2.746-3.333-3.64-5.401c-0.894-2.069-1.341-4.278-1.341-6.628c0-2.349,0.447-4.559,1.341-6.628
		c0.894-2.068,2.106-3.869,3.64-5.401c1.532-1.532,3.333-2.745,5.402-3.64c2.068-0.894,4.277-1.341,6.627-1.341
		c3.014,0,5.771,0.716,8.275,2.146c2.502,1.431,4.494,3.32,5.977,5.67v-6.359c0-0.408,0.127-0.74,0.383-0.996
		C429.532,49.598,429.863,49.469,430.273,49.469z"/>
	<path d="M439.928,49.469c0.408,0,0.74,0.129,0.996,0.384c0.255,0.256,0.383,0.588,0.383,0.996v31.185
		c0,0.409-0.128,0.741-0.383,0.996c-0.256,0.256-0.588,0.383-0.996,0.383c-0.41,0-0.741-0.127-0.996-0.383
		c-0.256-0.255-0.383-0.587-0.383-0.996V50.849c0-0.408,0.127-0.74,0.383-0.996C439.187,49.598,439.518,49.469,439.928,49.469z
		 M455.559,49.393c0.408,0,0.739,0.128,0.996,0.383c0.254,0.257,0.383,0.588,0.383,0.996c0,0.409-0.129,0.741-0.383,0.996
		c-0.257,0.256-0.588,0.383-0.996,0.383c-2.657,0-5.186,0.717-7.586,2.146c-0.256,0.153-0.486,0.23-0.689,0.23
		c-0.512,0-0.92-0.204-1.227-0.613c-0.204-0.356-0.256-0.715-0.152-1.072c0.102-0.357,0.307-0.639,0.613-0.843
		C449.275,50.262,452.289,49.393,455.559,49.393z"/>
</g>
</svg>
